<svg xmlns="http://www.w3.org/2000/svg" width="84" height="56" fill="none" xmlns:v="https://vecta.io/nano"><rect x=".6" y=".6" width="82.8" height="54.8" rx="2.4" fill="#fff"/><rect x=".6" y=".6" width="82.8" height="54.8" rx="2.4" stroke="#8796a1" stroke-width="1.2"/><path d="M71.121 10H12.879C11.841 10 11 10.806 11 11.8v32.4c0 .994.841 1.8 1.879 1.8h58.242C72.159 46 73 45.194 73 44.2V11.8c0-.994-.841-1.8-1.879-1.8z" fill="#58707f"/><path d="M33 16.977c0-.617.396-1.135.919-1.203l28.933-3.766c.612-.08 1.147.482 1.147 1.203v29.578c0 .722-.535 1.283-1.147 1.203l-28.933-3.766c-.523-.068-.919-.586-.919-1.203V16.977zm-13-.358a.5.5 0 0 1 .605-.489l10.838 2.322c.321.069.557.426.557.845v17.405c0 .419-.236.777-.557.846L20.605 39.87a.5.5 0 0 1-.605-.489V16.619z" fill-opacity=".5" fill="#fff"/><path d="M67 31l3-3-3-3m-50 0l-3 3 3 3" stroke="#fff" stroke-width="1.8" stroke-linecap="round" stroke-linejoin="round"/></svg>