<svg xmlns="http://www.w3.org/2000/svg" width="84" height="56" fill="none" xmlns:v="https://vecta.io/nano"><rect x=".6" y=".6" width="82.8" height="54.8" rx="2.4" fill="#fff"/><rect x=".6" y=".6" width="82.8" height="54.8" rx="2.4" stroke="#8796a1" stroke-width="1.2"/><rect x="12" y="10" width="60" height="36" rx="2" fill="#58707f"/><g fill="#fff"><path d="M21 18.446a1 1 0 0 1 .834-.986L48.364 13v30.667l-26.529-4.46a1 1 0 0 1-.834-.986V18.446z" fill-opacity=".5"/><path d="M63 18.334a1 1 0 0 0-.7-.954L48.364 13v30.667l13.936-4.38a1 1 0 0 0 .7-.954V18.334z" fill-opacity=".6"/></g><path d="M66 31l3-3-3-3m-48 0l-3 3 3 3" stroke="#fff" stroke-width="1.5" stroke-linecap="round" stroke-linejoin="round"/></svg>