<svg xmlns="http://www.w3.org/2000/svg" width="86" height="56" fill="none" xmlns:v="https://vecta.io/nano"><rect x=".6" y=".6" width="84.8" height="54.8" rx="2.4" fill="#fff"/><rect x=".6" y=".6" width="84.8" height="54.8" rx="2.4" stroke="#8796a1" stroke-width="1.2"/><rect x="13" y="10" width="60" height="36" rx="2" fill="#58707f"/><path d="M25 18.247a1.5 1.5 0 0 1 1.302-1.487l34-4.533A1.5 1.5 0 0 1 62 13.713v29.462a1.5 1.5 0 0 1-1.698 1.487l-34-4.533A1.5 1.5 0 0 1 25 38.642V18.247z" fill="#fff" fill-opacity=".5"/><path d="M67 31l3.071-3L67 25m-47.929 0L16 28l3.071 3" stroke="#fff" stroke-width="1.5" stroke-linecap="round" stroke-linejoin="round"/></svg>