<svg xmlns="http://www.w3.org/2000/svg" width="84" height="56" fill="none" xmlns:v="https://vecta.io/nano"><rect x=".6" y=".6" width="82.8" height="54.8" rx="2.4" fill="#fff"/><rect x=".6" y=".6" width="82.8" height="54.8" rx="2.4" stroke="#8796a1" stroke-width="1.2"/><rect x="12" y="10" width="60" height="36" rx="2" fill="#58707f"/><rect x="27" y="14" width="36" height="28" rx="2" fill="#fff" fill-opacity=".5"/><path d="M18 25l-3 3 3 3m48 0l3-3-3-3" stroke="#fff" stroke-width="1.5" stroke-linecap="round" stroke-linejoin="round"/><g fill="#fff" fill-rule="evenodd"><use href="#B" fill-opacity=".35"/><use href="#B" x="-3" fill-opacity=".2"/></g><defs ><path id="B" d="M26 14a2 2 0 0 0-2 2v24a2 2 0 0 0 2 2h2a2 2 0 0 1-2-2V16a2 2 0 0 1 2-2h-2z"/></defs></svg>