<svg width="100" height="70" viewBox="0 0 100 70" fill="none" xmlns="http://www.w3.org/2000/svg">
<path d="M3 0.5H97C98.3807 0.5 99.5 1.61929 99.5 3V67C99.5 68.3807 98.3807 69.5 97 69.5H3C1.61929 69.5 0.5 68.3807 0.5 67V3C0.5 1.61929 1.61929 0.5 3 0.5Z" fill="white" stroke="#58707F"/>
<rect x="17" y="15" width="66" height="40" rx="2.22222" fill="#58707F"/>
<path fill-rule="evenodd" clip-rule="evenodd" d="M76.3636 31.3636C76.7151 31.0121 77.2849 31.0121 77.6364 31.3636L80.6364 34.3636C80.9878 34.7151 80.9878 35.2849 80.6364 35.6364L77.6364 38.6364C77.2849 38.9879 76.7151 38.9879 76.3636 38.6364C76.0121 38.2849 76.0121 37.7151 76.3636 37.3636L78.7272 35L76.3636 32.6364C76.0121 32.2849 76.0121 31.7151 76.3636 31.3636Z" fill="white"/>
<path fill-rule="evenodd" clip-rule="evenodd" d="M23.6364 38.6364C23.2849 38.9879 22.7151 38.9879 22.3636 38.6364L19.3636 35.6364C19.0122 35.2849 19.0122 34.7151 19.3636 34.3636L22.3636 31.3636C22.7151 31.0121 23.2849 31.0121 23.6364 31.3636C23.9879 31.7151 23.9879 32.2849 23.6364 32.6364L21.2728 35L23.6364 37.3636C23.9879 37.7151 23.9879 38.2849 23.6364 38.6364Z" fill="white"/>
</svg>
