<svg xmlns="http://www.w3.org/2000/svg" width="84" height="56" fill="none" xmlns:v="https://vecta.io/nano"><style><![CDATA[.B{fill-opacity:.8}.C{fill:#fff}.D{fill:#58707f}]]></style><rect x=".6" y=".6" width="82.8" height="54.8" rx="2.4" class="C"/><rect x=".6" y=".6" width="82.8" height="54.8" rx="2.4" stroke="#8796a1" stroke-width="1.2"/><rect x="14" y="20" width="16.8" height="15.4" rx="1" class="D"/><g clip-path="url(#A)" class="C B"><use href="#D"/><use href="#E"/><use href="#F"/><use href="#G"/><use href="#H"/><use href="#I"/><use href="#J"/><use href="#K"/><use href="#L"/><path d="M25.699 33.537c.116 0 .211-.096.211-.214s-.094-.214-.211-.214-.211.096-.211.214.094.214.211.214zm-5.619-6.72c.582 0 1.055-.48 1.055-1.071s-.472-1.071-1.055-1.071-1.055.48-1.055 1.071.472 1.071 1.055 1.071zm-3.312 0c.582 0 1.055-.48 1.055-1.071s-.472-1.071-1.055-1.071-1.055.48-1.055 1.071.472 1.071 1.055 1.071z"/><path d="M16.768 29.174c.524 0 .949-.432.949-.964s-.425-.964-.949-.964-.949.432-.949.964.425.964.949.964zm0 2.572a.85.85 0 0 0 .844-.857.85.85 0 0 0-.844-.857.85.85 0 0 0-.844.857.85.85 0 0 0 .844.857zm6.189-5.143a.85.85 0 0 0 .844-.857.85.85 0 0 0-.844-.857.85.85 0 0 0-.844.857.85.85 0 0 0 .844.857zm0 2.25a.64.64 0 0 0 .633-.643c0-.355-.283-.643-.633-.643s-.633.288-.633.643.283.643.633.643zm0 2.571a.53.53 0 0 0 .527-.536.53.53 0 0 0-.527-.536.53.53 0 0 0-.527.536.53.53 0 0 0 .527.536z"/><use href="#M"/><path d="M20.08 29.067a.85.85 0 0 0 .844-.857.85.85 0 0 0-.844-.857.85.85 0 0 0-.844.857.85.85 0 0 0 .844.857zm0 2.679a.85.85 0 0 0 .844-.857.85.85 0 0 0-.844-.857.85.85 0 0 0-.844.857.85.85 0 0 0 .844.857zm0 2.005c.233 0 .422-.192.422-.428s-.189-.429-.422-.429-.422.192-.422.429.189.428.422.428z"/></g><rect x="33.8" y="20" width="16.8" height="15.4" rx="1" class="D"/><g clip-path="url(#B)" class="C B"><path d="M39.88 24.22c.699 0 1.266-.576 1.266-1.286s-.567-1.286-1.266-1.286-1.266.576-1.266 1.286.567 1.286 1.266 1.286zm2.877-.214c.582 0 1.055-.48 1.055-1.071s-.472-1.071-1.055-1.071-1.055.48-1.055 1.071.472 1.071 1.055 1.071zm2.742-.107c.524 0 .949-.432.949-.964s-.425-.964-.949-.964-.949.432-.949.964.425.964.949.964zm0 2.704a.85.85 0 0 0 .844-.857.85.85 0 0 0-.844-.857.85.85 0 0 0-.844.857.85.85 0 0 0 .844.857zm2.649-.107c.408 0 .738-.336.738-.75s-.331-.75-.738-.75-.738.336-.738.75.33.75.738.75zm0 2.25a.53.53 0 0 0 .527-.536.53.53 0 0 0-.527-.536.53.53 0 0 0-.527.536.53.53 0 0 0 .527.536zm0 2.357c.116 0 .211-.096.211-.214s-.095-.214-.211-.214-.211.096-.211.214.094.214.211.214zm-2.649-2.25a.64.64 0 0 0 .633-.643c0-.355-.283-.643-.633-.643s-.633.288-.633.643.283.643.633.643zm0 2.464c.233 0 .422-.192.422-.429s-.189-.428-.422-.428-.422.192-.422.428.189.429.422.429z"/><use href="#N"/><path d="M39.88 26.817c.582 0 1.055-.48 1.055-1.071s-.472-1.071-1.055-1.071-1.055.48-1.055 1.071.472 1.071 1.055 1.071z"/><use href="#O"/><path d="M36.568 29.174c.524 0 .949-.432.949-.964s-.425-.964-.949-.964-.949.432-.949.964.425.964.949.964zm0 2.572a.85.85 0 0 0 .844-.857.85.85 0 0 0-.844-.857.85.85 0 0 0-.844.857.85.85 0 0 0 .844.857zm6.189-5.143a.85.85 0 0 0 .844-.857.85.85 0 0 0-.844-.857.85.85 0 0 0-.844.857.85.85 0 0 0 .844.857zm0 2.25a.64.64 0 0 0 .633-.643c0-.355-.283-.643-.633-.643s-.633.288-.633.643.283.643.633.643zm0 2.571a.53.53 0 0 0 .527-.536.53.53 0 0 0-.527-.536.53.53 0 0 0-.527.536.53.53 0 0 0 .527.536zm0 2.327c.233 0 .422-.192.422-.428s-.189-.429-.422-.429-.422.192-.422.429.189.428.422.428zm-2.877-4.684a.85.85 0 0 0 .844-.857.85.85 0 0 0-.844-.857.85.85 0 0 0-.844.857.85.85 0 0 0 .844.857zm0 2.679a.85.85 0 0 0 .844-.857.85.85 0 0 0-.844-.857.85.85 0 0 0-.844.857.85.85 0 0 0 .844.857zm0 2.005c.233 0 .422-.192.422-.428s-.189-.429-.422-.429-.422.192-.422.429.189.428.422.428z"/></g><rect x="53.6" y="20" width="16.8" height="15.4" rx="1" class="D"/><g clip-path="url(#C)" class="C B"><path d="M59.68 24.22c.699 0 1.266-.576 1.266-1.286s-.567-1.286-1.266-1.286-1.266.576-1.266 1.286.567 1.286 1.266 1.286zm2.877-.214c.583 0 1.055-.48 1.055-1.071s-.472-1.071-1.055-1.071-1.055.48-1.055 1.071.472 1.071 1.055 1.071zm2.742-.107c.524 0 .949-.432.949-.964s-.425-.964-.949-.964-.949.432-.949.964.425.964.949.964zm0 2.704a.85.85 0 0 0 .844-.857.85.85 0 0 0-.844-.857.85.85 0 0 0-.844.857.85.85 0 0 0 .844.857zm2.649-.107c.408 0 .738-.336.738-.75s-.331-.75-.738-.75-.738.336-.738.75.331.75.738.75zm0 2.25a.53.53 0 0 0 .527-.536.53.53 0 0 0-.527-.536.53.53 0 0 0-.527.536.53.53 0 0 0 .527.536zm0 2.357c.116 0 .211-.096.211-.214s-.094-.214-.211-.214-.211.096-.211.214.095.214.211.214zm-2.649-2.25c.35 0 .633-.288.633-.643s-.283-.643-.633-.643-.633.288-.633.643.283.643.633.643zm0 2.464c.233 0 .422-.192.422-.429s-.189-.428-.422-.428-.422.192-.422.428.189.429.422.429zm0 2.22c.117 0 .211-.096.211-.214s-.094-.214-.211-.214-.211.096-.211.214.094.214.211.214z"/><path d="M59.68 26.817c.583 0 1.055-.48 1.055-1.071s-.472-1.071-1.055-1.071-1.055.48-1.055 1.071.472 1.071 1.055 1.071zm-3.312 0c.583 0 1.055-.48 1.055-1.071s-.472-1.071-1.055-1.071-1.055.48-1.055 1.071.472 1.071 1.055 1.071zm0 2.357c.524 0 .949-.432.949-.964s-.425-.964-.949-.964-.949.432-.949.964.425.964.949.964zm0 2.572a.85.85 0 0 0 .844-.857.85.85 0 0 0-.844-.857.85.85 0 0 0-.844.857.85.85 0 0 0 .844.857zm6.189-5.143a.85.85 0 0 0 .844-.857.85.85 0 0 0-.844-.857.85.85 0 0 0-.844.857.85.85 0 0 0 .844.857zm0 2.25a.64.64 0 0 0 .633-.643c0-.355-.283-.643-.633-.643s-.633.288-.633.643.283.643.633.643zm0 2.571a.53.53 0 0 0 .527-.536.53.53 0 0 0-.527-.536.53.53 0 0 0-.527.536.53.53 0 0 0 .527.536zm0 2.327c.233 0 .422-.192.422-.428s-.189-.429-.422-.429-.422.192-.422.429.189.428.422.428zm-2.877-4.684a.85.85 0 0 0 .844-.857.85.85 0 0 0-.844-.857.85.85 0 0 0-.844.857.85.85 0 0 0 .844.857zm0 2.679a.85.85 0 0 0 .844-.857.85.85 0 0 0-.844-.857.85.85 0 0 0-.844.857.85.85 0 0 0 .844.857zm0 2.005c.233 0 .422-.192.422-.428s-.189-.429-.422-.429-.422.192-.422.429.189.428.422.428z"/></g><path d="M9.36 25L6 28.2l3.36 3.2m64.68.4l3.36-3.2-3.36-3.2" stroke="#58707f" stroke-width="1.5" stroke-linecap="round" stroke-linejoin="round"/><defs><clipPath id="A"><path transform="translate(15.65 21.7)" d="M0 0h13.5v12H0z" class="C"/></clipPath><clipPath id="B"><path transform="translate(35.45 21.7)" d="M0 0h13.5v12H0z" class="C"/></clipPath><clipPath id="C"><path transform="translate(55.25 21.7)" d="M0 0h13.5v12H0z" class="C"/></clipPath><path id="D" d="M20.08 24.22c.699 0 1.266-.576 1.266-1.286s-.567-1.286-1.266-1.286-1.266.576-1.266 1.286.567 1.286 1.266 1.286z"/><path id="E" d="M22.957 24.006c.582 0 1.055-.48 1.055-1.071s-.472-1.071-1.055-1.071-1.055.48-1.055 1.071.472 1.071 1.055 1.071z"/><path id="F" d="M25.699 23.899c.524 0 .949-.432.949-.964s-.425-.964-.949-.964-.949.432-.949.964.425.964.949.964z"/><path id="G" d="M25.699 26.603a.85.85 0 0 0 .844-.857.85.85 0 0 0-.844-.857.85.85 0 0 0-.844.857.85.85 0 0 0 .844.857z"/><path id="H" d="M28.348 26.496c.408 0 .738-.336.738-.75s-.331-.75-.738-.75-.738.336-.738.75.331.75.738.75z"/><path id="I" d="M28.348 28.746a.53.53 0 0 0 .527-.536.53.53 0 0 0-.527-.536.53.53 0 0 0-.527.536.53.53 0 0 0 .527.536z"/><path id="J" d="M28.348 31.103c.116 0 .211-.096.211-.214s-.094-.214-.211-.214-.211.096-.211.214.094.214.211.214z"/><path id="K" d="M25.699 28.853c.349 0 .633-.288.633-.643s-.283-.643-.633-.643-.633.288-.633.643.283.643.633.643z"/><path id="L" d="M25.699 31.317c.233 0 .422-.192.422-.429s-.189-.428-.422-.428-.422.192-.422.428.189.429.422.429z"/><path id="M" d="M22.957 33.751c.233 0 .422-.192.422-.428s-.189-.429-.422-.429-.422.192-.422.429.189.428.422.428z"/><path id="N" d="M45.499 33.537c.117 0 .211-.096.211-.214s-.094-.214-.211-.214-.211.096-.211.214.094.214.211.214z"/><path id="O" d="M36.568 26.817c.583 0 1.055-.48 1.055-1.071s-.472-1.071-1.055-1.071-1.055.48-1.055 1.071.472 1.071 1.055 1.071z"/></defs></svg>